<svg width="34" height="34" viewBox="0 0 34 34" fill="none" xmlns="http://www.w3.org/2000/svg">
<rect width="34" height="34" rx="17" fill="none" stroke="#CCCCCC" stroke-width="1"/>
<path d="M10.4364 23C10.0412 23 9.70311 22.8643 9.42222 22.5929C9.14133 22.3214 9.00059 21.996 9 21.6166V14.0994C9 13.7189 9.14074 13.3931 9.42222 13.1223C9.7037 12.8514 10.0415 12.7154 10.4356 12.7143H15.1707L16.9484 11H23.5644C23.9591 11 24.2969 11.1357 24.5778 11.4071C24.8587 11.6786 24.9994 12.0043 25 12.3843V21.6157C25 21.9963 24.8593 22.322 24.5778 22.5929C24.2963 22.8637 23.9585 22.9994 23.5644 23H10.4364ZM10.8791 18.0543H15.7698C15.9292 18.0543 16.0601 18.0051 16.1627 17.9069C16.2652 17.808 16.3164 17.6817 16.3164 17.528V12.812L10.8791 18.0543ZM9.88889 17.8083L14.2818 13.5714H10.4364C10.2764 13.5714 10.1452 13.6209 10.0427 13.7197C9.94015 13.8186 9.88889 13.9451 9.88889 14.0994V17.8083ZM9.88889 18.9131V21.6166C9.88889 21.7703 9.94015 21.8966 10.0427 21.9954C10.1452 22.0943 10.2764 22.1437 10.4364 22.1437H23.5644C23.7239 22.1437 23.8548 22.0943 23.9573 21.9954C24.0599 21.8966 24.1111 21.7703 24.1111 21.6166V12.3843C24.1111 12.2306 24.0599 12.1043 23.9573 12.0054C23.8548 11.9066 23.7239 11.8571 23.5644 11.8571H17.2044V17.528C17.2044 17.9086 17.0637 18.2343 16.7822 18.5051C16.5007 18.776 16.163 18.9117 15.7689 18.9123L9.88889 18.9131Z" fill="#323131"/>
</svg>
