<svg width="13" height="13" viewBox="0 0 13 13" fill="none" xmlns="http://www.w3.org/2000/svg">
<path d="M1.54167 11.4085H2.55104L9.475 4.48457L8.46562 3.4752L1.54167 10.3992V11.4085ZM0.125 12.8252V9.81478L9.475 0.482487C9.61667 0.352626 9.77309 0.252279 9.94427 0.181445C10.1155 0.110612 10.2955 0.0751953 10.4844 0.0751953C10.6733 0.0751953 10.8562 0.110612 11.0333 0.181445C11.2104 0.252279 11.3639 0.358529 11.4938 0.500195L12.4677 1.49186C12.6094 1.62172 12.7127 1.7752 12.7776 1.95228C12.8425 2.12936 12.875 2.30645 12.875 2.48353C12.875 2.67242 12.8425 2.85245 12.7776 3.02363C12.7127 3.19481 12.6094 3.35124 12.4677 3.4929L3.13542 12.8252H0.125ZM8.96146 3.98874L8.46562 3.4752L9.475 4.48457L8.96146 3.98874Z" fill="#2563EB"/>
</svg>
